PERFORMER "Kasabian"
TITLE "Sziget Festival 2015"
FILE "kasabian.mp3" MP3
  TRACK 01 AUDIO
    TITLE "bumblebeee"
    INDEX 01 00:00:00
  TRACK 03 AUDIO
    TITLE "Shoot the Runner"
    INDEX 01 04:38:00
  TRACK 03 AUDIO
    TITLE "Underdog"
    INDEX 01 08:14:00
  TRACK 07 AUDIO
    TITLE "Days are Forgotten"
    INDEX 01 14:17:30
  TRACK 02 AUDIO
    TITLE "eez-eh"
    INDEX 01 18:57:00
  TRACK 06 AUDIO
    TITLE "Club Foot"
    INDEX 01 23:34:00
  TRACK 07 AUDIO
    TITLE "Re-Wired (Word Up outro)"
    INDEX 01 27:35:20
  TRACK 08 AUDIO
    TITLE "Goodbye Kiss"
    INDEX 01 34:49:00
  TRACK 11 AUDIO
    TITLE "treat"
    INDEX 01 40:22:20
  TRACK 10 AUDIO
    TITLE "Switchblade Smiles"
    INDEX 01 48:06:00
  TRACK 09 AUDIO
    TITLE "Pinch Roller"
    INDEX 01 52:08:00
  TRACK 12 AUDIO
    TITLE "Empire"
    INDEX 01 53:16:50
  TRACK 13 AUDIO
    TITLE "stevie"
    INDEX 01 57:16:00
  TRACK 14 AUDIO
    TITLE "Fire"
    INDEX 01 63:13:00
  TRACK 15 AUDIO
    TITLE "Vlad the Impaler"
    INDEX 01 67:46:00
  TRACK 13 AUDIO
    TITLE "Praise You"
    INDEX 01 73:24:00
  TRACK 20 AUDIO
    TITLE "L.S.F."
    INDEX 01 74:56:40
